<svg width="48" height="48" viewBox="0 0 48 48" fill="none" xmlns="http://www.w3.org/2000/svg">
<g clip-path="url(#clip0_16_53)">
<mask id="mask0_16_53" style="mask-type:luminance" maskUnits="userSpaceOnUse" x="0" y="0" width="48" height="48">
<path d="M0 0H48V48H0V0Z" fill="white"/>
</mask>
<g mask="url(#mask0_16_53)">
<path d="M8.35962 9.26843C9.15246 8.361 10.0172 7.51899 10.9454 6.75059" stroke="#9DFF3A" stroke-width="1.5" stroke-miterlimit="10" stroke-linecap="round" stroke-linejoin="round"/>
<path d="M3.41064 18.9504C3.96197 16.5539 4.90644 14.2652 6.20571 12.1773" stroke="#9DFF3A" stroke-width="1.5" stroke-miterlimit="10" stroke-linecap="round" stroke-linejoin="round"/>
<path d="M10.8063 41.1333C5.93714 37.0359 2.84058 30.8814 2.84058 24C2.84058 23.7386 2.84508 23.4783 2.85389 23.2192" stroke="#9DFF3A" stroke-width="1.5" stroke-miterlimit="10" stroke-linecap="round" stroke-linejoin="round"/>
<path d="M35.8402 43.5439C32.6494 45.3235 28.9769 46.3369 25.0689 46.3369C21.1743 46.3369 17.5136 45.3304 14.3304 43.562" stroke="#9DFF3A" stroke-width="1.5" stroke-miterlimit="10" stroke-linecap="round" stroke-linejoin="round"/>
<path d="M43.9174 12.1537C46.0591 15.5875 47.2974 19.6484 47.2974 23.9999C47.2974 30.8712 44.2099 37.0178 39.3529 41.1152" stroke="#9DFF3A" stroke-width="1.5" stroke-miterlimit="10" stroke-linecap="round" stroke-linejoin="round"/>
<path d="M38.9951 6.58923C39.8177 7.25454 40.5921 7.97725 41.3125 8.75195" stroke="#9DFF3A" stroke-width="1.5" stroke-miterlimit="10" stroke-linecap="round" stroke-linejoin="round"/>
<path d="M14.4697 4.36145C17.6203 2.64067 21.2313 1.66314 25.0694 1.66314C28.809 1.66314 32.3329 2.59117 35.4256 4.23048" stroke="#9DFF3A" stroke-width="1.5" stroke-miterlimit="10" stroke-linecap="round" stroke-linejoin="round"/>
<path d="M26.9298 9.47144C29.4334 7.9134 32.1913 6.68884 35.1552 5.87144" stroke="#9DFF3A" stroke-width="1.5" stroke-miterlimit="10" stroke-linecap="round" stroke-linejoin="round"/>
<path d="M17.8226 18.0847C19.4299 15.8026 21.3321 13.7432 23.4797 11.9601" stroke="#9DFF3A" stroke-width="1.5" stroke-miterlimit="10" stroke-linecap="round" stroke-linejoin="round"/>
<path d="M12.2633 40.2014C11.4631 33.6596 12.7282 27.2742 15.5858 21.7639" stroke="#9DFF3A" stroke-width="1.5" stroke-miterlimit="10" stroke-linecap="round" stroke-linejoin="round"/>
<path d="M23.2073 9.47156C20.6191 7.86084 17.759 6.60656 14.6807 5.79" stroke="#9DFF3A" stroke-width="1.5" stroke-miterlimit="10" stroke-linecap="round" stroke-linejoin="round"/>
<path d="M35.3701 23.4637C33.3927 19.0249 30.4136 15.076 26.6586 11.9602" stroke="#9DFF3A" stroke-width="1.5" stroke-miterlimit="10" stroke-linecap="round" stroke-linejoin="round"/>
<path d="M37.7716 31.7161C37.5603 30.2883 37.2516 28.8767 36.8477 27.491" stroke="#9DFF3A" stroke-width="1.5" stroke-miterlimit="10" stroke-linecap="round" stroke-linejoin="round"/>
<path d="M37.8617 40.3079C38.0479 38.8264 38.13 37.3337 38.1071 35.8408" stroke="#9DFF3A" stroke-width="1.5" stroke-miterlimit="10" stroke-linecap="round" stroke-linejoin="round"/>
<path d="M14.6128 19.4767C11.4107 19.4604 8.1603 19.804 4.91187 20.537" stroke="#9DFF3A" stroke-width="1.5" stroke-miterlimit="10" stroke-linecap="round" stroke-linejoin="round"/>
<path d="M34.3258 24.399C29.5586 21.8999 24.321 20.2866 18.8723 19.7117" stroke="#9DFF3A" stroke-width="1.5" stroke-miterlimit="10" stroke-linecap="round" stroke-linejoin="round"/>
<path d="M45.5027 32.8053C43.2483 30.4517 40.7357 28.3601 38.0123 26.5699" stroke="#9DFF3A" stroke-width="1.5" stroke-miterlimit="10" stroke-linecap="round" stroke-linejoin="round"/>
<path d="M37.2582 23.587C39.3881 20.1584 41.0273 16.4484 42.1278 12.565" stroke="#9DFF3A" stroke-width="1.5" stroke-miterlimit="10" stroke-linecap="round" stroke-linejoin="round"/>
<path d="M14.6124 41.6816C22.6485 38.9102 29.6808 33.8074 34.8279 27.1002" stroke="#9DFF3A" stroke-width="1.5" stroke-miterlimit="10" stroke-linecap="round" stroke-linejoin="round"/>
<path d="M25.0684 12.6737C23.8897 12.6737 22.9308 11.7101 22.9308 10.5256C22.9308 9.34117 23.8897 8.37761 25.0684 8.37761C26.2471 8.37761 27.206 9.34117 27.206 10.5256C27.206 11.7101 26.2471 12.6737 25.0684 12.6737Z" stroke="#9DFF3A" stroke-width="1.5" stroke-miterlimit="10" stroke-linecap="round" stroke-linejoin="round"/>
<path d="M16.75 22.1118C15.5713 22.1118 14.6124 21.1482 14.6124 19.9637C14.6124 18.7793 15.5713 17.8156 16.75 17.8156C17.9287 17.8156 18.8876 18.7793 18.8876 19.9637C18.8876 21.1482 17.9287 22.1118 16.75 22.1118Z" stroke="#9DFF3A" stroke-width="1.5" stroke-miterlimit="10" stroke-linecap="round" stroke-linejoin="round"/>
<path d="M36.1912 27.595C35.0125 27.595 34.0536 26.6313 34.0536 25.4469C34.0536 24.2624 35.0125 23.2988 36.1912 23.2988C37.3699 23.2988 38.3288 24.2624 38.3288 25.4469C38.3288 26.6313 37.3699 27.595 36.1912 27.595Z" stroke="#9DFF3A" stroke-width="1.5" stroke-miterlimit="10" stroke-linecap="round" stroke-linejoin="round"/>
<path d="M12.5833 44.4733C11.4046 44.4733 10.4457 43.5097 10.4457 42.3252C10.4457 41.1407 11.4046 40.1772 12.5833 40.1772C13.762 40.1772 14.721 41.1407 14.721 42.3252C14.721 43.5097 13.762 44.4733 12.5833 44.4733Z" stroke="#9DFF3A" stroke-width="1.5" stroke-miterlimit="10" stroke-linecap="round" stroke-linejoin="round"/>
<path d="M37.6773 44.5957C36.4985 44.5957 35.5397 43.632 35.5397 42.4476C35.5397 41.2632 36.4985 40.2995 37.6773 40.2995C38.856 40.2995 39.815 41.2632 39.815 42.4476C39.815 43.632 38.856 44.5957 37.6773 44.5957Z" stroke="#9DFF3A" stroke-width="1.5" stroke-miterlimit="10" stroke-linecap="round" stroke-linejoin="round"/>
<path d="M42.6612 12.5651C41.4825 12.5651 40.5236 11.6014 40.5236 10.417C40.5236 9.23253 41.4825 8.26888 42.6612 8.26888C43.84 8.26888 44.7988 9.23253 44.7988 10.417C44.7988 11.6014 43.84 12.5651 42.6612 12.5651Z" stroke="#9DFF3A" stroke-width="1.5" stroke-miterlimit="10" stroke-linecap="round" stroke-linejoin="round"/>
<path d="M37.2345 7.52063C36.0558 7.52063 35.0969 6.55707 35.0969 5.37254C35.0969 4.1881 36.0558 3.22454 37.2345 3.22454C38.4132 3.22454 39.3722 4.1881 39.3722 5.37254C39.3722 6.55707 38.4132 7.52063 37.2345 7.52063Z" stroke="#9DFF3A" stroke-width="1.5" stroke-miterlimit="10" stroke-linecap="round" stroke-linejoin="round"/>
<path d="M12.5833 7.52063C11.4046 7.52063 10.4457 6.55707 10.4457 5.37254C10.4457 4.1881 11.4046 3.22454 12.5833 3.22454C13.762 3.22454 14.721 4.1881 14.721 5.37254C14.721 6.55707 13.762 7.52063 12.5833 7.52063Z" stroke="#9DFF3A" stroke-width="1.5" stroke-miterlimit="10" stroke-linecap="round" stroke-linejoin="round"/>
<path d="M2.84072 23.2186C1.662 23.2186 0.703125 22.2551 0.703125 21.0705C0.703125 19.8861 1.662 18.9225 2.84072 18.9225C4.01944 18.9225 4.97831 19.8861 4.97831 21.0705C4.97831 22.2551 4.01944 23.2186 2.84072 23.2186Z" stroke="#9DFF3A" stroke-width="1.5" stroke-miterlimit="10" stroke-linecap="round" stroke-linejoin="round"/>
</g>
</g>
<defs>
<clipPath id="clip0_16_53">
<rect width="48" height="48" fill="white"/>
</clipPath>
</defs>
</svg>
