<svg width="131" height="32" viewBox="0 0 131 32" fill="none" xmlns="http://www.w3.org/2000/svg">
<g clip-path="url(#clip0_1_133)">
<path d="M39.9628 21.9613H49.1728V19.1516H43.2362V8.56818H39.9628V21.9613Z" fill="#999999"/>
<path d="M54.6295 20.0882C53.3164 20.0882 52.6321 18.9268 52.6321 17.1848C52.6321 15.4427 53.3164 14.2626 54.6295 14.2626C55.9425 14.2626 56.6453 15.4427 56.6453 17.1848C56.6453 18.9268 55.9425 20.0882 54.6295 20.0882ZM54.648 22.261C57.6995 22.261 59.6968 20.0694 59.6968 17.1848C59.6968 14.3001 57.6995 12.1085 54.648 12.1085C51.6149 12.1085 49.5806 14.3001 49.5806 17.1848C49.5806 20.0694 51.6149 22.261 54.648 22.261Z" fill="#999999"/>
<path d="M64.9788 25.2769C66.3844 25.2769 67.6235 24.9585 68.4557 24.2092C69.214 23.5161 69.7133 22.4671 69.7133 21.0248V12.3708H66.8282V13.401H66.7912C66.2364 12.5955 65.3857 12.0898 64.1281 12.0898C61.7793 12.0898 60.1519 14.0753 60.1519 16.8851C60.1519 19.826 62.1307 21.4369 64.2576 21.4369C65.4042 21.4369 66.1255 20.9686 66.6803 20.3317H66.7543V21.2871C66.7543 22.4484 66.2179 23.1228 64.9418 23.1228C63.9432 23.1228 63.4438 22.6919 63.2774 22.1862H60.3553C60.6512 24.1905 62.3711 25.2769 64.9788 25.2769ZM64.9603 19.1704C63.8322 19.1704 63.0924 18.2338 63.0924 16.7914C63.0924 15.3304 63.8322 14.3938 64.9603 14.3938C66.2179 14.3938 66.8837 15.4802 66.8837 16.7727C66.8837 18.1214 66.2734 19.1704 64.9603 19.1704Z" fill="#999999"/>
<path d="M75.6456 20.0882C74.3325 20.0882 73.6482 18.9268 73.6482 17.1848C73.6482 15.4427 74.3325 14.2626 75.6456 14.2626C76.9587 14.2626 77.6614 15.4427 77.6614 17.1848C77.6614 18.9268 76.9587 20.0882 75.6456 20.0882ZM75.6641 22.261C78.7156 22.261 80.713 20.0694 80.713 17.1848C80.713 14.3001 78.7156 12.1085 75.6641 12.1085C72.631 12.1085 70.5967 14.3001 70.5967 17.1848C70.5967 20.0694 72.631 22.261 75.6641 22.261Z" fill="#999999"/>
<path d="M81.593 21.9613H84.6075V12.3707H81.593V21.9613ZM81.593 11.0408H84.6075V8.56818H81.593V11.0408Z" fill="#999999"/>
<path d="M85.916 25.1271H88.9305V20.9686H88.9675C89.5593 21.7741 90.4285 22.2611 91.6491 22.2611C94.1273 22.2611 95.7733 20.2755 95.7733 17.1661C95.7733 14.2814 94.2383 12.0898 91.7231 12.0898C90.4285 12.0898 89.5038 12.6705 88.8565 13.5321H88.801V12.3708H85.916V25.1271ZM90.8724 19.9009C89.5778 19.9009 88.838 18.8332 88.838 17.2785C88.838 15.7237 89.5038 14.5436 90.8169 14.5436C92.1115 14.5436 92.7218 15.6301 92.7218 17.2785C92.7218 18.9081 92.019 19.9009 90.8724 19.9009Z" fill="#999999"/>
<path d="M100.681 22.2611C103.159 22.2611 104.99 21.1747 104.99 19.0767C104.99 16.6229 103.03 16.192 101.365 15.9111C100.163 15.6863 99.0907 15.5926 99.0907 14.9183C99.0907 14.3189 99.664 14.0379 100.404 14.0379C101.236 14.0379 101.809 14.3001 101.92 15.1618H104.694C104.546 13.2699 103.104 12.0898 100.422 12.0898C98.1845 12.0898 96.3351 13.1388 96.3351 15.1618C96.3351 17.4096 98.092 17.8591 99.738 18.1401C100.996 18.3649 102.142 18.4586 102.142 19.3202C102.142 19.9384 101.569 20.2755 100.663 20.2755C99.664 20.2755 99.0352 19.8072 98.9243 18.8519H96.0762C96.1686 20.9686 97.9071 22.2611 100.681 22.2611Z" fill="#999999"/>
<path d="M109.085 22.2423C110.398 22.2423 111.231 21.7178 111.915 20.7813H111.97V21.9614H114.855V12.3707H111.841V17.728C111.841 18.8706 111.212 19.6574 110.176 19.6574C109.215 19.6574 108.752 19.0767 108.752 18.0277V12.3707H105.756V18.6646C105.756 20.8 106.903 22.2423 109.085 22.2423Z" fill="#999999"/>
<path d="M116.166 21.9614H119.181V16.5854C119.181 15.4428 119.736 14.6373 120.679 14.6373C121.585 14.6373 122.01 15.2367 122.01 16.267V21.9614H125.025V16.5854C125.025 15.4428 125.561 14.6373 126.523 14.6373C127.429 14.6373 127.854 15.2367 127.854 16.267V21.9614H130.869V15.7237C130.869 13.5696 129.796 12.0898 127.651 12.0898C126.43 12.0898 125.413 12.6143 124.673 13.7756H124.637C124.156 12.7454 123.212 12.0898 121.973 12.0898C120.605 12.0898 119.699 12.7454 119.107 13.7382H119.051V12.3708H116.166V21.9614Z" fill="#999999"/>
<path fill-rule="evenodd" clip-rule="evenodd" d="M15.9389 31.3272C24.4506 31.3272 31.3507 24.3384 31.3507 15.7174C31.3507 7.0964 24.4506 0.107666 15.9389 0.107666C7.42723 0.107666 0.527161 7.0964 0.527161 15.7174C0.527161 24.3384 7.42723 31.3272 15.9389 31.3272ZM20.7469 7.37934C20.9809 6.53736 20.1742 6.03947 19.4374 6.57112L9.15245 13.9922C8.35342 14.5688 8.47911 15.7174 9.34124 15.7174H12.0495V15.6962H17.3279L13.027 17.2332L11.131 24.0555C10.897 24.8975 11.7036 25.3954 12.4405 24.8637L22.7254 17.4427C23.5245 16.8661 23.3987 15.7174 22.5366 15.7174H18.4296L20.7469 7.37934Z" fill="#999999"/>
</g>
<defs>
<clipPath id="clip0_1_133">
<rect width="131" height="32" fill="white"/>
</clipPath>
</defs>
</svg>
