<svg width="130" height="32" viewBox="0 0 130 32" fill="none" xmlns="http://www.w3.org/2000/svg">
<g clip-path="url(#clip0_1_117)">
<path d="M38.1314 22.597H47.38V19.7872H41.4186V9.2038H38.1314V22.597Z" fill="#999999"/>
<path d="M52.8595 20.7238C51.5409 20.7238 50.8538 19.5625 50.8538 17.8204C50.8538 16.0784 51.5409 14.8983 52.8595 14.8983C54.1781 14.8983 54.8838 16.0784 54.8838 17.8204C54.8838 19.5625 54.1781 20.7238 52.8595 20.7238ZM52.8781 22.8967C55.9423 22.8967 57.9481 20.7051 57.9481 17.8204C57.9481 14.9358 55.9423 12.7441 52.8781 12.7441C49.8323 12.7441 47.7895 14.9358 47.7895 17.8204C47.7895 20.7051 49.8323 22.8967 52.8781 22.8967Z" fill="#999999"/>
<path d="M63.2521 25.9125C64.6635 25.9125 65.9078 25.5941 66.7435 24.8448C67.5049 24.1517 68.0063 23.1028 68.0063 21.6604V13.0064H65.1092V14.0366H65.0721C64.5149 13.2312 63.6606 12.7254 62.3978 12.7254C60.0392 12.7254 58.4049 14.711 58.4049 17.5207C58.4049 20.4616 60.3921 22.0725 62.5278 22.0725C63.6792 22.0725 64.4035 21.6042 64.9606 20.9674H65.0349V21.9227C65.0349 23.084 64.4963 23.7584 63.2149 23.7584C62.2121 23.7584 61.7106 23.3275 61.5435 22.8218H58.6092C58.9063 24.8261 60.6335 25.9125 63.2521 25.9125ZM63.2335 19.806C62.1006 19.806 61.3578 18.8694 61.3578 17.4271C61.3578 15.966 62.1006 15.0294 63.2335 15.0294C64.4963 15.0294 65.1649 16.1158 65.1649 17.4083C65.1649 18.757 64.5521 19.806 63.2335 19.806Z" fill="#999999"/>
<path d="M73.9634 20.7238C72.6449 20.7238 71.9577 19.5625 71.9577 17.8204C71.9577 16.0784 72.6449 14.8983 73.9634 14.8983C75.282 14.8983 75.9877 16.0784 75.9877 17.8204C75.9877 19.5625 75.282 20.7238 73.9634 20.7238ZM73.982 22.8967C77.0463 22.8967 79.0516 20.7051 79.0516 17.8204C79.0516 14.9358 77.0463 12.7441 73.982 12.7441C70.9363 12.7441 68.8934 14.9358 68.8934 17.8204C68.8934 20.7051 70.9363 22.8967 73.982 22.8967Z" fill="#999999"/>
<path d="M79.9361 22.597H82.9632V13.0063H79.9361V22.597ZM79.9361 11.6764H82.9632V9.2038H79.9361V11.6764Z" fill="#999999"/>
<path d="M84.2764 25.7627H87.3035V21.6042H87.3407C87.9349 22.4097 88.8078 22.8967 90.0335 22.8967C92.5221 22.8967 94.1749 20.9112 94.1749 17.8017C94.1749 14.917 92.6335 12.7254 90.1078 12.7254C88.8078 12.7254 87.8792 13.3061 87.2292 14.1677H87.1735V13.0064H84.2764V25.7627ZM89.2535 20.5365C87.9535 20.5365 87.2107 19.4688 87.2107 17.9141C87.2107 16.3594 87.8792 15.1793 89.1978 15.1793C90.4978 15.1793 91.1106 16.2657 91.1106 17.9141C91.1106 19.5437 90.4049 20.5365 89.2535 20.5365Z" fill="#999999"/>
<path d="M99.1034 22.8967C101.592 22.8967 103.43 21.8103 103.43 19.7123C103.43 17.2585 101.462 16.8276 99.7905 16.5467C98.5834 16.3219 97.5062 16.2282 97.5062 15.5539C97.5062 14.9545 98.0819 14.6735 98.8248 14.6735C99.6605 14.6735 100.236 14.9357 100.348 15.7974H103.133C102.985 13.9055 101.536 12.7254 98.8434 12.7254C96.5962 12.7254 94.7391 13.7744 94.7391 15.7974C94.7391 18.0452 96.5034 18.4948 98.1562 18.7757C99.4191 19.0005 100.57 19.0942 100.57 19.9558C100.57 20.574 99.9948 20.9112 99.0848 20.9112C98.0819 20.9112 97.4505 20.4429 97.3391 19.4875H94.4791C94.5719 21.6042 96.3176 22.8967 99.1034 22.8967Z" fill="#999999"/>
<path d="M107.542 22.878C108.861 22.878 109.697 22.3535 110.384 21.4169H110.44V22.597H113.337V13.0063H110.31V18.3636C110.31 19.5062 109.678 20.293 108.638 20.293C107.672 20.293 107.208 19.7123 107.208 18.6633V13.0063H104.2V19.3002C104.2 21.4356 105.351 22.878 107.542 22.878Z" fill="#999999"/>
<path d="M114.654 22.597H117.681V17.221C117.681 16.0784 118.238 15.2729 119.185 15.2729C120.095 15.2729 120.522 15.8723 120.522 16.9026V22.597H123.55V17.221C123.55 16.0784 124.088 15.2729 125.054 15.2729C125.964 15.2729 126.391 15.8723 126.391 16.9026V22.597H129.418V16.3594C129.418 14.2052 128.341 12.7254 126.187 12.7254C124.961 12.7254 123.94 13.2499 123.197 14.4113H123.16C122.677 13.381 121.73 12.7254 120.485 12.7254C119.111 12.7254 118.201 13.381 117.607 14.3738H117.551V13.0064H114.654V22.597Z" fill="#999999"/>
<path d="M19.6624 1.54292L16.619 0.720398L14.0543 10.3747L11.7389 1.65873L8.69539 2.48126L11.1971 11.8982L4.9659 5.61326L2.73796 7.86043L9.57281 14.7543L1.06109 12.4539L0.245605 15.5236L9.54573 18.0371C9.43925 17.5738 9.38292 17.0912 9.38292 16.5953C9.38292 13.0849 12.2042 10.2393 15.6845 10.2393C19.1648 10.2393 21.9861 13.0849 21.9861 16.5953C21.9861 17.088 21.9305 17.5677 21.8253 18.0282L30.2774 20.3124L31.0928 17.2428L21.7557 14.7193L30.268 12.4187L29.4525 9.34906L20.1158 11.8724L26.347 5.58746L24.119 3.34028L17.379 10.1385L19.6624 1.54292Z" fill="#999999"/>
<path d="M21.817 18.0639C21.5561 19.1766 21.0052 20.1761 20.2493 20.977L26.3725 27.1531L28.6004 24.9059L21.817 18.0639Z" fill="#999999"/>
<path d="M20.1875 21.0416C19.4225 21.8297 18.4558 22.4178 17.3716 22.7208L19.5998 31.108L22.6431 30.2854L20.1875 21.0416Z" fill="#999999"/>
<path d="M17.2579 22.7515C16.755 22.882 16.2278 22.9513 15.6845 22.9513C15.1024 22.9513 14.5388 22.8717 14.0037 22.7227L11.7736 31.1174L14.817 31.9399L17.2579 22.7515Z" fill="#999999"/>
<path d="M13.8961 22.6916C12.8286 22.3735 11.879 21.7779 11.1297 20.9876L4.99146 27.1788L7.2194 29.426L13.8961 22.6916Z" fill="#999999"/>
<path d="M11.0785 20.9329C10.342 20.1376 9.80548 19.1514 9.55012 18.0559L1.07043 20.3477L1.88591 23.4173L11.0785 20.9329Z" fill="#999999"/>
</g>
<defs>
<clipPath id="clip0_1_117">
<rect width="130" height="32" fill="white"/>
</clipPath>
</defs>
</svg>
