<svg width="129" height="32" viewBox="0 0 129 32" fill="none" xmlns="http://www.w3.org/2000/svg">
<g clip-path="url(#clip0_1_106)">
<path d="M37.565 22.4731H46.7974V19.6633H40.8464V9.0799H37.565V22.4731Z" fill="#999999"/>
<path d="M52.2673 20.5999C50.9511 20.5999 50.2651 19.4385 50.2651 17.6965C50.2651 15.9544 50.9511 14.7743 52.2673 14.7743C53.5836 14.7743 54.2881 15.9544 54.2881 17.6965C54.2881 19.4385 53.5836 20.5999 52.2673 20.5999ZM52.2859 22.7728C55.3448 22.7728 57.347 20.5812 57.347 17.6965C57.347 14.8118 55.3448 12.6202 52.2859 12.6202C49.2455 12.6202 47.2062 14.8118 47.2062 17.6965C47.2062 20.5812 49.2455 22.7728 52.2859 22.7728Z" fill="#999999"/>
<path d="M62.6417 25.7886C64.0507 25.7886 65.2928 25.4701 66.127 24.7209C66.8871 24.0278 67.3877 22.9788 67.3877 21.5365V12.8824H64.4956V13.9127H64.4585C63.9023 13.1072 63.0496 12.6014 61.7889 12.6014C59.4345 12.6014 57.803 14.587 57.803 17.3968C57.803 20.3376 59.7867 21.9486 61.9187 21.9486C63.0681 21.9486 63.7911 21.4803 64.3473 20.8434H64.4214V21.7987C64.4214 22.9601 63.8838 23.6344 62.6046 23.6344C61.6035 23.6344 61.103 23.2036 60.9361 22.6978H58.007C58.3036 24.7021 60.0277 25.7886 62.6417 25.7886ZM62.6232 19.682C61.4923 19.682 60.7507 18.7454 60.7507 17.3031C60.7507 15.842 61.4923 14.9054 62.6232 14.9054C63.8838 14.9054 64.5512 15.9919 64.5512 17.2844C64.5512 18.633 63.9394 19.682 62.6232 19.682Z" fill="#999999"/>
<path d="M73.3343 20.5999C72.0181 20.5999 71.3321 19.4385 71.3321 17.6965C71.3321 15.9544 72.0181 14.7743 73.3343 14.7743C74.6506 14.7743 75.3551 15.9544 75.3551 17.6965C75.3551 19.4385 74.6506 20.5999 73.3343 20.5999ZM73.3529 22.7728C76.4118 22.7728 78.4142 20.5812 78.4142 17.6965C78.4142 14.8118 76.4118 12.6202 73.3529 12.6202C70.3125 12.6202 68.2732 14.8118 68.2732 17.6965C68.2732 20.5812 70.3125 22.7728 73.3529 22.7728Z" fill="#999999"/>
<path d="M79.2964 22.4731H82.3182V12.8824H79.2964V22.4731ZM79.2964 11.5525H82.3182V9.0799H79.2964V11.5525Z" fill="#999999"/>
<path d="M83.6291 25.6387H86.6509V21.4803H86.688C87.2813 22.2857 88.1526 22.7728 89.3762 22.7728C91.8604 22.7728 93.5103 20.7872 93.5103 17.6777C93.5103 14.793 91.9716 12.6014 89.4503 12.6014C88.1526 12.6014 87.2256 13.1821 86.5768 14.0438H86.5212V12.8824H83.6291V25.6387ZM88.5975 20.4126C87.2998 20.4126 86.5582 19.3449 86.5582 17.7901C86.5582 16.2354 87.2256 15.0553 88.5419 15.0553C89.8396 15.0553 90.4514 16.1417 90.4514 17.7901C90.4514 19.4198 89.7469 20.4126 88.5975 20.4126Z" fill="#999999"/>
<path d="M98.4309 22.7728C100.915 22.7728 102.75 21.6863 102.75 19.5884C102.75 17.1345 100.785 16.7037 99.1168 16.4227C97.9118 16.1979 96.8365 16.1043 96.8365 15.4299C96.8365 14.8305 97.4112 14.5495 98.1528 14.5495C98.987 14.5495 99.5617 14.8118 99.673 15.6734H102.454C102.305 13.7815 100.859 12.6014 98.1713 12.6014C95.9281 12.6014 94.0742 13.6504 94.0742 15.6734C94.0742 17.9212 95.8354 18.3708 97.4854 18.6518C98.746 18.8766 99.8954 18.9702 99.8954 19.8319C99.8954 20.45 99.3207 20.7872 98.4123 20.7872C97.4112 20.7872 96.7809 20.3189 96.6697 19.3636H93.8147C93.9074 21.4803 95.65 22.7728 98.4309 22.7728Z" fill="#999999"/>
<path d="M106.854 22.7541C108.171 22.7541 109.005 22.2296 109.691 21.293H109.747V22.4731H112.639V12.8824H109.617V18.2397C109.617 19.3823 108.986 20.1691 107.948 20.1691C106.984 20.1691 106.521 19.5884 106.521 18.5394V12.8824H103.517V19.1763C103.517 21.3117 104.667 22.7541 106.854 22.7541Z" fill="#999999"/>
<path d="M113.953 22.4731H116.975V17.0971C116.975 15.9544 117.531 15.149 118.477 15.149C119.385 15.149 119.812 15.7484 119.812 16.7786V22.4731H122.833V17.0971C122.833 15.9544 123.371 15.149 124.335 15.149C125.244 15.149 125.67 15.7484 125.67 16.7786V22.4731H128.692V16.2354C128.692 14.0812 127.617 12.6014 125.466 12.6014C124.242 12.6014 123.223 13.1259 122.481 14.2873H122.444C121.962 13.2571 121.017 12.6014 119.775 12.6014C118.403 12.6014 117.494 13.2571 116.901 14.2498H116.845V12.8824H113.953V22.4731Z" fill="#999999"/>
<path fill-rule="evenodd" clip-rule="evenodd" d="M6.68497 3.03715C5.57985 3.81792 4.58052 4.74105 3.71302 5.7802C7.25805 5.44766 11.7619 5.99066 16.9908 8.63232C22.5745 11.4532 27.0709 11.5485 30.2001 10.9387C29.9161 10.0701 29.5586 9.23525 29.1352 8.44165C25.5531 8.82339 20.9609 8.3181 15.609 5.61441C12.2105 3.89749 9.21478 3.19024 6.68497 3.03715ZM27.0427 5.4323C24.2139 2.23882 20.103 0.229065 15.5274 0.229065C14.1838 0.229065 12.88 0.402417 11.6371 0.728171C13.3205 1.19225 15.1087 1.8712 16.9908 2.82205C20.9091 4.80157 24.292 5.43894 27.0427 5.4323ZM30.8691 13.9876C27.0887 14.7418 21.8684 14.5869 15.609 11.4247C9.7572 8.46834 5.09966 8.50557 1.95845 9.2109C1.79631 9.24727 1.63799 9.28551 1.48349 9.32532C1.07223 10.229 0.743943 11.1794 0.508396 12.1662C0.759973 12.0983 1.01994 12.0338 1.28816 11.9735C5.099 11.1179 10.4834 11.155 16.9908 14.4426C22.8427 17.3989 27.5002 17.3617 30.6414 16.6564C30.7491 16.6322 30.8551 16.6073 30.9594 16.5815C30.9708 16.3354 30.9765 16.0878 30.9765 15.8388C30.9765 15.2125 30.9401 14.5947 30.8691 13.9876ZM30.455 19.8757C26.7113 20.537 21.643 20.2832 15.609 17.2349C9.7572 14.2786 5.09966 14.3158 1.95845 15.0212C1.26119 15.1777 0.633949 15.3683 0.0806324 15.5696C0.0791238 15.6591 0.0783691 15.7489 0.0783691 15.8388C0.0783691 24.4598 6.99516 31.4486 15.5274 31.4486C22.6781 31.4486 28.6942 26.54 30.455 19.8757Z" fill="#999999"/>
</g>
<defs>
<clipPath id="clip0_1_106">
<rect width="129" height="32" fill="white"/>
</clipPath>
</defs>
</svg>
