<svg width="131" height="32" viewBox="0 0 131 32" fill="none" xmlns="http://www.w3.org/2000/svg">
<g clip-path="url(#clip0_1_155)">
<path d="M39.4241 22.3643H48.6886V19.6215H42.7169V9.29004H39.4241V22.3643Z" fill="#999999"/>
<path d="M54.1775 20.5357C52.8567 20.5357 52.1683 19.402 52.1683 17.7015C52.1683 16.0009 52.8567 14.8489 54.1775 14.8489C55.4984 14.8489 56.2053 16.0009 56.2053 17.7015C56.2053 19.402 55.4984 20.5357 54.1775 20.5357ZM54.1961 22.6569C57.2657 22.6569 59.2749 20.5175 59.2749 17.7015C59.2749 14.8855 57.2657 12.746 54.1961 12.746C51.1451 12.746 49.0988 14.8855 49.0988 17.7015C49.0988 20.5175 51.1451 22.6569 54.1961 22.6569Z" fill="#999999"/>
<path d="M64.5879 25.6009C66.0018 25.6009 67.2483 25.2901 68.0854 24.5586C68.8482 23.8821 69.3505 22.8581 69.3505 21.4501V13.0021H66.4483V14.0078H66.4111C65.853 13.2215 64.9972 12.7278 63.7322 12.7278C61.3695 12.7278 59.7324 14.6661 59.7324 17.4089C59.7324 20.2798 61.723 21.8524 63.8624 21.8524C65.0158 21.8524 65.7414 21.3952 66.2995 20.7735H66.3739V21.7061C66.3739 22.8398 65.8344 23.4981 64.5507 23.4981C63.5462 23.4981 63.0439 23.0775 62.8764 22.5838H59.9371C60.2347 24.5404 61.9648 25.6009 64.5879 25.6009ZM64.5693 19.6398C63.4345 19.6398 62.6904 18.7255 62.6904 17.3175C62.6904 15.8912 63.4345 14.9769 64.5693 14.9769C65.8344 14.9769 66.5041 16.0375 66.5041 17.2992C66.5041 18.6158 65.8902 19.6398 64.5693 19.6398Z" fill="#999999"/>
<path d="M75.318 20.5357C73.9972 20.5357 73.3088 19.402 73.3088 17.7015C73.3088 16.0009 73.9972 14.8489 75.318 14.8489C76.6389 14.8489 77.3458 16.0009 77.3458 17.7015C77.3458 19.402 76.6389 20.5357 75.318 20.5357ZM75.3366 22.6569C78.4062 22.6569 80.4154 20.5175 80.4154 17.7015C80.4154 14.8855 78.4062 12.746 75.3366 12.746C72.2857 12.746 70.2393 14.8855 70.2393 17.7015C70.2393 20.5175 72.2857 22.6569 75.3366 22.6569Z" fill="#999999"/>
<path d="M81.3007 22.3643H84.333V13.002H81.3007V22.3643ZM81.3007 11.7038H84.333V9.29004H81.3007V11.7038Z" fill="#999999"/>
<path d="M85.6492 25.4546H88.6815V21.3952H88.7188C89.3141 22.1815 90.1884 22.6569 91.4163 22.6569C93.9091 22.6569 95.5649 20.7186 95.5649 17.6832C95.5649 14.8672 94.0208 12.7278 91.4907 12.7278C90.1884 12.7278 89.2583 13.2946 88.6071 14.1358H88.5513V13.0021H85.6492V25.4546ZM90.6349 20.3529C89.3327 20.3529 88.5885 19.3106 88.5885 17.7929C88.5885 16.2752 89.2583 15.1232 90.5791 15.1232C91.8814 15.1232 92.4953 16.1838 92.4953 17.7929C92.4953 19.3838 91.7883 20.3529 90.6349 20.3529Z" fill="#999999"/>
<path d="M100.502 22.6569C102.995 22.6569 104.836 21.5964 104.836 19.5484C104.836 17.1529 102.864 16.7324 101.19 16.4581C99.9809 16.2386 98.9019 16.1472 98.9019 15.4889C98.9019 14.9038 99.4786 14.6295 100.223 14.6295C101.06 14.6295 101.637 14.8855 101.748 15.7266H104.539C104.39 13.8798 102.939 12.7278 100.241 12.7278C97.9903 12.7278 96.13 13.7518 96.13 15.7266C96.13 17.9209 97.8973 18.3598 99.553 18.6341C100.818 18.8535 101.971 18.9449 101.971 19.7861C101.971 20.3895 101.395 20.7186 100.483 20.7186C99.4786 20.7186 98.8461 20.2615 98.7345 19.3289H95.8695C95.9625 21.3952 97.7113 22.6569 100.502 22.6569Z" fill="#999999"/>
<path d="M108.956 22.6386C110.276 22.6386 111.114 22.1266 111.802 21.2124H111.858V22.3644H114.76V13.0021H111.727V18.2318C111.727 19.3472 111.095 20.1152 110.053 20.1152C109.086 20.1152 108.621 19.5484 108.621 18.5244V13.0021H105.607V19.1461C105.607 21.2306 106.76 22.6386 108.956 22.6386Z" fill="#999999"/>
<path d="M116.078 22.3644H119.111V17.1164C119.111 16.0009 119.669 15.2146 120.618 15.2146C121.529 15.2146 121.957 15.7998 121.957 16.8055V22.3644H124.989V17.1164C124.989 16.0009 125.529 15.2146 126.496 15.2146C127.408 15.2146 127.836 15.7998 127.836 16.8055V22.3644H130.868V16.2752C130.868 14.1724 129.789 12.7278 127.631 12.7278C126.403 12.7278 125.38 13.2398 124.636 14.3735H124.599C124.115 13.3678 123.166 12.7278 121.92 12.7278C120.543 12.7278 119.632 13.3678 119.036 14.3369H118.981V13.0021H116.078V22.3644Z" fill="#999999"/>
<path fill-rule="evenodd" clip-rule="evenodd" d="M16.0334 0.73291C24.7629 0.73291 31.8396 7.6887 31.8396 16.2691C31.8396 24.8496 24.7629 31.8054 16.0334 31.8054C7.30376 31.8054 0.227051 24.8496 0.227051 16.2691C0.227051 7.6887 7.30376 0.73291 16.0334 0.73291ZM31.2329 16.2691C31.2329 8.01807 24.4278 1.32919 16.0334 1.32919C15.3562 1.32919 14.6895 1.37271 14.0357 1.45706C14.4581 1.42077 14.8855 1.40224 15.3174 1.40224C23.3388 1.40224 29.8415 7.79376 29.8415 15.6781C29.8415 23.5624 23.3388 29.9539 15.3174 29.9539C7.72336 29.9539 1.49054 24.2252 0.848071 16.9246C1.19708 24.8716 7.86222 31.2091 16.0334 31.2091C24.4278 31.2091 31.2329 24.5202 31.2329 16.2691ZM29.2348 15.6781C29.2348 8.12306 23.0038 1.99853 15.3174 1.99853C14.6934 1.99853 14.0788 2.03891 13.4765 2.11715C13.8474 2.08647 14.2226 2.07082 14.6016 2.07082C21.9148 2.07082 27.8433 7.89807 27.8433 15.0863C27.8433 22.2745 21.9148 28.1017 14.6016 28.1017C7.68679 28.1017 2.00991 22.892 1.41198 16.2481C1.71599 23.5388 7.8254 29.3576 15.3174 29.3576C23.0038 29.3576 29.2348 23.2331 29.2348 15.6781ZM14.6016 2.66711C21.5797 2.66711 27.2367 8.22736 27.2367 15.0863C27.2367 21.9452 21.5797 27.5054 14.6016 27.5054C7.78517 27.5054 2.22939 22.1998 1.97565 15.5608C2.52348 21.5532 7.64666 26.2495 13.8858 26.2495C20.4903 26.2495 25.8444 20.9869 25.8444 14.4952C25.8444 8.00344 20.4903 2.7409 13.8858 2.7409C13.5441 2.7409 13.2058 2.75498 12.8714 2.78259C13.4371 2.70645 14.0146 2.66711 14.6016 2.66711ZM25.2377 14.4952C25.2377 8.33281 20.1553 3.33719 13.8858 3.33719C13.3561 3.33719 12.8348 3.37284 12.3244 3.44186C12.6031 3.42042 12.8848 3.4095 13.1691 3.4095C19.0655 3.4095 23.8455 8.10774 23.8455 13.9034C23.8455 19.699 19.0655 24.3973 13.1691 24.3973C7.61934 24.3973 3.0586 20.2351 2.54164 14.9132C2.7653 20.8819 7.75866 25.6532 13.8858 25.6532C20.1553 25.6532 25.2377 20.6576 25.2377 14.4952ZM13.1691 4.00578C18.7304 4.00578 23.2388 8.43712 23.2388 13.9034C23.2388 19.3697 18.7304 23.801 13.1691 23.801C7.71738 23.801 3.27753 19.5426 3.10472 14.2252C3.57146 18.8959 7.57881 22.5451 12.4533 22.5451C17.6415 22.5451 21.8473 18.4111 21.8473 13.3116C21.8473 8.21205 17.6415 4.07808 12.4533 4.07808C12.2154 4.07808 11.9795 4.08677 11.746 4.10385C12.211 4.03921 12.686 4.00578 13.1691 4.00578ZM21.2407 13.3116C21.2407 8.54134 17.3064 4.67437 12.4533 4.67437C12.0103 4.67437 11.5749 4.70659 11.1495 4.76877C11.3437 4.75511 11.5398 4.74815 11.7375 4.74815C16.217 4.74815 19.8484 8.3175 19.8484 12.7205C19.8484 17.1235 16.217 20.6928 11.7375 20.6928C7.53989 20.6928 4.08707 17.5587 3.66901 13.5413C3.79295 18.2053 7.67836 21.9488 12.4533 21.9488C17.3064 21.9488 21.2407 18.0818 21.2407 13.3116ZM11.7375 5.34444C15.882 5.34444 19.2417 8.64679 19.2417 12.7205C19.2417 16.7942 15.882 20.0965 11.7375 20.0965C7.64571 20.0965 4.31883 16.8777 4.23482 12.8757C4.6128 16.231 7.50717 18.8406 11.0216 18.8406C14.793 18.8406 17.8502 15.8356 17.8502 12.1287C17.8502 8.4218 14.793 5.41674 11.0216 5.41674C10.8774 5.41674 10.7342 5.42113 10.5922 5.42979C10.9656 5.37359 11.3481 5.34444 11.7375 5.34444ZM17.2436 12.1287C17.2436 8.7511 14.458 6.01303 11.0216 6.01303C10.6766 6.01303 10.338 6.04064 10.0082 6.09373C10.1065 6.08864 10.2054 6.08607 10.305 6.08607C13.3681 6.08607 15.8513 8.52679 15.8513 11.5376C15.8513 14.5484 13.3681 16.9892 10.305 16.9892C7.47266 16.9892 5.13618 14.9023 4.80017 12.2076C4.84319 15.5489 7.61216 18.2444 11.0216 18.2444C14.458 18.2444 17.2436 15.5063 17.2436 12.1287ZM10.305 6.68235C13.0331 6.68235 15.2447 8.85609 15.2447 11.5376C15.2447 14.2191 13.0331 16.3928 10.305 16.3928C7.5769 16.3928 5.36534 14.2191 5.36534 11.5376C5.36534 11.5312 5.36535 11.5247 5.36538 11.5183C5.64941 13.5618 7.43222 15.1362 9.58917 15.1362C11.9437 15.1362 13.8524 13.2601 13.8524 10.9458C13.8524 8.63148 11.9437 6.75541 9.58917 6.75541C9.53592 6.75541 9.4829 6.75636 9.43011 6.75827C9.71405 6.70838 10.0064 6.68235 10.305 6.68235ZM13.2457 10.9458C13.2457 8.96085 11.6087 7.35169 9.58917 7.35169C7.56968 7.35169 5.93257 8.96085 5.93257 10.9458C5.93257 12.9308 7.56968 14.5399 9.58917 14.5399C11.6087 14.5399 13.2457 12.9308 13.2457 10.9458Z" fill="#999999"/>
</g>
<defs>
<clipPath id="clip0_1_155">
<rect width="131" height="32" fill="white"/>
</clipPath>
</defs>
</svg>
