<svg width="132" height="32" viewBox="0 0 132 32" fill="none" xmlns="http://www.w3.org/2000/svg">
<g clip-path="url(#clip0_1_144)">
<path d="M39.8155 22.8864H49.0959V20.0766H43.1139V9.49323H39.8155V22.8864Z" fill="#999999"/>
<path d="M54.5941 21.0132C53.271 21.0132 52.5815 19.8518 52.5815 18.1098C52.5815 16.3678 53.271 15.1877 54.5941 15.1877C55.9172 15.1877 56.6253 16.3678 56.6253 18.1098C56.6253 19.8518 55.9172 21.0132 54.5941 21.0132ZM54.6127 23.1861C57.6875 23.1861 59.7002 20.9945 59.7002 18.1098C59.7002 15.2251 57.6875 13.0335 54.6127 13.0335C51.5565 13.0335 49.5067 15.2251 49.5067 18.1098C49.5067 20.9945 51.5565 23.1861 54.6127 23.1861Z" fill="#999999"/>
<path d="M65.0224 26.2019C66.4387 26.2019 67.6873 25.8835 68.5259 25.1342C69.2899 24.4411 69.7931 23.3921 69.7931 21.9498V13.2957H66.886V14.326H66.8487C66.2896 13.5205 65.4324 13.0148 64.1652 13.0148C61.7985 13.0148 60.1586 15.0003 60.1586 17.8101C60.1586 20.751 62.1526 22.3619 64.2957 22.3619C65.4511 22.3619 66.1778 21.8936 66.7369 21.2567H66.8114V22.212C66.8114 23.3734 66.271 24.0477 64.9852 24.0477C63.9789 24.0477 63.4757 23.6169 63.308 23.1112H60.3636C60.6618 25.1155 62.3949 26.2019 65.0224 26.2019ZM65.0038 20.0954C63.8671 20.0954 63.1216 19.1588 63.1216 17.7164C63.1216 16.2554 63.8671 15.3188 65.0038 15.3188C66.271 15.3188 66.9419 16.4052 66.9419 17.6977C66.9419 19.0464 66.3269 20.0954 65.0038 20.0954Z" fill="#999999"/>
<path d="M75.7707 21.0132C74.4476 21.0132 73.7581 19.8518 73.7581 18.1098C73.7581 16.3678 74.4476 15.1877 75.7707 15.1877C77.0938 15.1877 77.8016 16.3678 77.8016 18.1098C77.8016 19.8518 77.0938 21.0132 75.7707 21.0132ZM75.7893 23.1861C78.8638 23.1861 80.8764 20.9945 80.8764 18.1098C80.8764 15.2251 78.8638 13.0335 75.7893 13.0335C72.7331 13.0335 70.6832 15.2251 70.6832 18.1098C70.6832 20.9945 72.7331 23.1861 75.7893 23.1861Z" fill="#999999"/>
<path d="M81.7639 22.8864H84.8015V13.2958H81.7639V22.8864ZM81.7639 11.9658H84.8015V9.49323H81.7639V11.9658Z" fill="#999999"/>
<path d="M86.1191 26.052H89.1567V21.8936H89.194C89.7903 22.6991 90.6661 23.1861 91.8961 23.1861C94.3932 23.1861 96.0518 21.2005 96.0518 18.0911C96.0518 15.2064 94.505 13.0148 91.9706 13.0148C90.6661 13.0148 89.7344 13.5955 89.0821 14.4571H89.0262V13.2957H86.1191V26.052ZM91.1134 20.8259C89.8089 20.8259 89.0635 19.7582 89.0635 18.2035C89.0635 16.6487 89.7344 15.4686 91.0575 15.4686C92.362 15.4686 92.9769 16.5551 92.9769 18.2035C92.9769 19.8331 92.2688 20.8259 91.1134 20.8259Z" fill="#999999"/>
<path d="M100.997 23.1861C103.494 23.1861 105.339 22.0996 105.339 20.0017C105.339 17.5478 103.364 17.117 101.687 16.836C100.475 16.6113 99.3944 16.5176 99.3944 15.8433C99.3944 15.2438 99.9721 14.9629 100.718 14.9629C101.556 14.9629 102.134 15.2251 102.246 16.0868H105.041C104.892 14.1949 103.438 13.0148 100.736 13.0148C98.4813 13.0148 96.6178 14.0637 96.6178 16.0868C96.6178 18.3346 98.3881 18.7841 100.047 19.0651C101.314 19.2899 102.469 19.3836 102.469 20.2452C102.469 20.8634 101.892 21.2005 100.978 21.2005C99.9721 21.2005 99.3385 20.7322 99.2267 19.7769H96.3569C96.45 21.8936 98.2018 23.1861 100.997 23.1861Z" fill="#999999"/>
<path d="M109.465 23.1674C110.788 23.1674 111.627 22.6429 112.316 21.7063H112.372V22.8864H115.279V13.2958H112.242V18.653C112.242 19.7957 111.608 20.5824 110.565 20.5824C109.596 20.5824 109.13 20.0017 109.13 18.9528V13.2958H106.111V19.5896C106.111 21.725 107.266 23.1674 109.465 23.1674Z" fill="#999999"/>
<path d="M116.601 22.8864H119.639V17.5104C119.639 16.3677 120.198 15.5623 121.148 15.5623C122.061 15.5623 122.49 16.1617 122.49 17.1919V22.8864H125.527V17.5104C125.527 16.3677 126.068 15.5623 127.037 15.5623C127.95 15.5623 128.379 16.1617 128.379 17.1919V22.8864H131.416V16.6487C131.416 14.4946 130.335 13.0148 128.174 13.0148C126.944 13.0148 125.919 13.5393 125.173 14.7006H125.136C124.651 13.6704 123.701 13.0148 122.452 13.0148C121.073 13.0148 120.16 13.6704 119.564 14.6632H119.508V13.2957H116.601V22.8864Z" fill="#999999"/>
<path fill-rule="evenodd" clip-rule="evenodd" d="M15.6081 31.4717C24.1849 31.4717 31.1375 24.483 31.1375 15.862C31.1375 7.24098 24.1849 0.252258 15.6081 0.252258C7.03148 0.252258 0.0787354 7.24098 0.0787354 15.862C0.0787354 24.483 7.03148 31.4717 15.6081 31.4717ZM18.0051 12.3128C19.3288 10.9821 19.3288 8.82479 18.0051 7.49414C16.6813 6.1635 14.535 6.1635 13.2112 7.49414C11.8875 8.82479 11.8875 10.9821 13.2112 12.3128L15.6081 14.7221L18.0051 12.3128ZM19.1391 18.2713C20.4629 19.602 22.6092 19.602 23.933 18.2713C25.2567 16.9407 25.2567 14.7833 23.933 13.4527C22.6092 12.1221 20.4629 12.1221 19.1391 13.4527L16.7422 15.8621L19.1391 18.2713ZM18.0051 24.2299C19.3288 22.8992 19.3288 20.7419 18.0051 19.4112L15.6081 17.002L13.2112 19.4112C11.8875 20.7419 11.8875 22.8992 13.2112 24.2299C14.535 25.5606 16.6813 25.5606 18.0051 24.2299ZM7.28332 18.2713C5.95956 16.9407 5.95956 14.7833 7.28332 13.4527C8.60715 12.1221 10.7534 12.1221 12.0772 13.4527L14.4741 15.8621L12.0772 18.2713C10.7534 19.602 8.60715 19.602 7.28332 18.2713Z" fill="#999999"/>
</g>
<defs>
<clipPath id="clip0_1_144">
<rect width="132" height="32" fill="white"/>
</clipPath>
</defs>
</svg>
