<svg width="27" height="27" viewBox="0 0 27 27" fill="none" xmlns="http://www.w3.org/2000/svg">
<path d="M5.75 9.5C7.8125 9.5 8.84375 9.5 9.48375 8.85875C10.125 8.21875 10.125 7.1875 10.125 5.125C10.125 3.0625 10.125 2.03125 9.48375 1.39125C8.84375 0.75 7.8125 0.75 5.75 0.75C3.6875 0.75 2.65625 0.75 2.01625 1.39125C1.375 2.03125 1.375 3.0625 1.375 5.125C1.375 7.1875 1.375 8.21875 2.01625 8.85875C2.65625 9.5 3.6875 9.5 5.75 9.5ZM5.75 9.5V15.75M5.75 15.75C4.8925 15.75 4.2 16.44 2.82125 17.8213C1.44 19.2013 0.75 19.8925 0.75 20.75C0.75 21.6075 1.44 22.3 2.82125 23.6788C4.20125 25.06 4.8925 25.75 5.75 25.75C6.6075 25.75 7.3 25.06 8.67875 23.6788C10.06 22.2988 10.75 21.6075 10.75 20.75M5.75 15.75C6.6075 15.75 7.29875 16.44 8.67875 17.8213C10.06 19.2 10.75 19.8925 10.75 20.75M10.75 20.75H17M17 20.75C17 18.6875 17 17.6563 17.6413 17.0163C18.2813 16.375 19.3125 16.375 21.375 16.375C23.4375 16.375 24.4688 16.375 25.1088 17.0163C25.75 17.6563 25.75 18.6875 25.75 20.75C25.75 22.8125 25.75 23.8438 25.1088 24.4838C24.4688 25.125 23.4375 25.125 21.375 25.125C19.3125 25.125 18.2813 25.125 17.6413 24.4838C17 23.8438 17 22.8125 17 20.75Z" stroke="#9DFF3A" stroke-width="1.5" stroke-linecap="round" stroke-linejoin="round"/>
</svg>
